<svg width="60" height="60" viewBox="0 0 60 60" fill="none" xmlns="http://www.w3.org/2000/svg">
<path d="M30 10.909C35.1379 7.95589 40.7332 5.88188 46.5545 4.77259C47.8664 4.45819 49.2335 4.45317 50.5475 4.75795C51.8618 5.06269 53.0869 5.66869 54.1265 6.52841C55.1662 7.3881 55.9917 8.47789 56.5377 9.71144C57.0837 10.945 57.3352 12.2887 57.2727 13.6362V38.1815C57.1906 41.2282 56.0907 44.1592 54.1478 46.5074C52.2052 48.8553 49.5319 50.4851 46.5545 51.1361C40.7332 52.2455 35.1379 54.3196 30 57.2725" stroke="white" stroke-width="4.09091" stroke-linecap="round" stroke-linejoin="round"/>
<path d="M29.9986 10.909C24.8607 7.95589 19.2657 5.88188 13.4443 4.77259C12.1324 4.45819 10.7654 4.45317 9.45125 4.75795C8.13714 5.06269 6.91197 5.66869 5.87239 6.52841C4.8328 7.3881 4.00726 8.47789 3.4612 9.71144C2.91518 10.945 2.66344 12.2887 2.72596 13.6362V38.1815C2.808 41.2282 3.90818 44.1592 5.85089 46.5074C7.79364 48.8553 10.4671 50.4851 13.4443 51.1361C19.2657 52.2455 24.8607 54.3196 29.9986 57.2725" stroke="white" stroke-width="4.09091" stroke-linecap="round" stroke-linejoin="round"/>
<path d="M30 57.2727V10.9091" stroke="white" stroke-width="4.09091" stroke-linecap="round" stroke-linejoin="round"/>
</svg>
