<svg width="61" height="61" viewBox="0 0 61 61" fill="none" xmlns="http://www.w3.org/2000/svg">
<g clip-path="url(#clip0_13_2)">
<path d="M30.9709 60.1065C14.4289 60.1065 0.970947 46.6486 0.970947 30.1065C0.970947 13.5645 14.4289 0.106537 30.9709 0.106537C47.513 0.106537 60.9709 13.5645 60.9709 30.1065C60.9709 46.6486 47.513 60.1065 30.9709 60.1065Z" fill="#EFB832"/>
<g opacity="0.2">
<path d="M39.8606 32.7445C39.5513 31.8407 39.0511 31.0795 38.3622 30.4609C37.8139 29.9126 37.1591 29.4849 36.3979 29.1755C35.6366 28.8662 34.6725 28.6272 33.5057 28.4604L33.2807 28.4263L30.4708 27.9965C29.9245 27.9261 29.4665 27.8057 29.097 27.6389C28.9423 27.5706 28.7977 27.4943 28.6612 27.412C28.4724 27.2976 28.3036 27.171 28.1511 27.0324C27.888 26.7713 27.7052 26.486 27.5968 26.1768C27.4904 25.8675 27.4361 25.5461 27.4361 25.2127C27.4361 24.331 27.7514 23.5758 28.3822 22.9451C28.4685 22.8587 28.5609 22.7783 28.6613 22.706C29.288 22.234 30.1777 21.999 31.3286 21.999C31.9532 21.999 32.6039 22.0553 33.2808 22.1698C33.5077 22.208 33.7368 22.2522 33.9698 22.3023C34.8977 22.5052 35.7554 22.9872 36.5406 23.7484L39.682 20.6413C38.5873 19.5708 37.3863 18.8095 36.0767 18.3577C35.2372 18.0685 34.3033 17.8696 33.2788 17.7672C32.7065 17.7069 32.1039 17.6788 31.4712 17.6788C30.459 17.6788 29.521 17.7812 28.6613 17.9881C28.3499 18.0624 28.0488 18.1487 27.7574 18.2511C26.6628 18.6308 25.7349 19.161 24.9736 19.8379C24.2124 20.5167 23.6279 21.3261 23.2243 22.2661C22.8186 23.2061 22.6177 24.2486 22.6177 25.3914C22.6177 27.5565 23.2243 29.2236 24.4374 30.3885C25.0098 30.9368 25.6866 31.3827 26.472 31.7282C27.0926 31.9994 27.8197 32.2163 28.6612 32.3749C28.8882 32.4191 29.1211 32.4593 29.3642 32.4954L32.399 32.9593C32.7404 33.0095 33.0337 33.0638 33.2807 33.12C33.4996 33.1723 33.6824 33.2244 33.827 33.2807C34.1363 33.3992 34.4215 33.578 34.6846 33.8149C35.2068 34.3391 35.4699 35.0421 35.4699 35.9218C35.4699 36.9462 35.0883 37.7315 34.3271 38.2778C34.0339 38.4907 33.6844 38.6615 33.2807 38.7899C32.638 38.9967 31.8568 39.0992 30.9348 39.0992C30.1516 39.0992 29.3923 39.0288 28.6612 38.8882C28.3056 38.8199 27.9582 38.7355 27.6148 38.6352C26.5684 38.326 25.6404 37.7676 24.831 36.9581L21.6174 40.1697C22.8547 41.4329 24.2284 42.3067 25.7409 42.7948C26.6406 43.086 27.6148 43.2888 28.6633 43.4053C29.3743 43.4857 30.1214 43.5259 30.9007 43.5259C31.7282 43.5259 32.5216 43.4596 33.2808 43.3251C33.7428 43.2447 34.1927 43.1383 34.6305 43.0077C35.7854 42.6642 36.7836 42.1642 37.6292 41.5093C38.4748 40.8546 39.1355 40.0512 39.6116 39.0992C40.0877 38.1471 40.3247 37.0525 40.3247 35.8153C40.3245 34.6726 40.1698 33.6503 39.8606 32.7445Z" fill="white"/>
<path d="M33.2807 17.8495V22.1698C32.6038 22.0553 31.9531 21.999 31.3285 21.999C30.1776 21.999 29.2879 22.234 28.6612 22.706V17.8495C28.6612 16.5782 29.7016 15.5398 30.9709 15.5398C31.6056 15.5398 32.1841 15.7989 32.6018 16.2186C33.0036 16.6184 33.2587 17.1647 33.2787 17.7672C33.2807 17.7953 33.2807 17.8214 33.2807 17.8495Z" fill="white"/>
<path d="M33.2807 28.4263V33.1201C33.0337 33.0639 32.7405 33.0096 32.399 32.9595L29.3642 32.4955C29.1211 32.4593 28.8882 32.4192 28.6612 32.3751V27.412C28.7977 27.4944 28.9423 27.5707 29.097 27.6389C29.4666 27.8057 29.9245 27.9261 30.4708 27.9965L33.2807 28.4263Z" fill="white"/>
<path d="M30.9349 39.0994C31.8568 39.0994 32.6381 38.997 33.2807 38.7901V43.3574C33.2807 44.6268 32.2423 45.6672 30.9709 45.6672C29.7176 45.6672 28.6873 44.6529 28.6632 43.4056C28.6612 43.3895 28.6612 43.3735 28.6612 43.3574V38.8884C29.3923 39.0291 30.1515 39.0994 30.9349 39.0994Z" fill="white"/>
</g>
<g opacity="0.5">
<path d="M30.9711 55.4932C16.9728 55.4932 5.58438 44.1048 5.58438 30.1065C5.58438 16.1083 16.9727 4.71986 30.9711 4.71986C44.9693 4.71986 56.3577 16.1081 56.3577 30.1065C56.3577 44.1049 44.9693 55.4932 30.9711 55.4932ZM30.9711 11.1929C20.5421 11.1929 12.0575 19.6776 12.0575 30.1065C12.0575 40.5355 20.5421 49.0201 30.9711 49.0201C41.4 49.0201 49.8847 40.5355 49.8847 30.1065C49.8847 19.6776 41.3999 11.1929 30.9711 11.1929Z" fill="#AE8132"/>
</g>
<path d="M22.5334 9.74697C22.5871 9.88337 22.6338 10.0074 22.6725 10.1185C22.7117 10.2293 22.7401 10.3348 22.7575 10.4345C22.7751 10.5338 22.7798 10.6301 22.7712 10.7229C22.7631 10.8154 22.7371 10.9124 22.6934 11.0128C22.6352 11.1469 22.5548 11.2641 22.4524 11.3646C22.3499 11.4647 22.2156 11.5478 22.0499 11.6128C21.8846 11.6779 21.7293 11.7088 21.5845 11.7055C21.4396 11.7022 21.3003 11.6719 21.1659 11.6134C21.0657 11.5693 20.9808 11.5165 20.9116 11.4542C20.8421 11.3922 20.7804 11.3181 20.7274 11.2327C20.6733 11.1472 20.6233 11.0507 20.5762 10.9429C20.5287 10.8346 20.4786 10.7126 20.4249 10.5762C20.3715 10.44 20.3252 10.3164 20.2863 10.2052C20.2469 10.0938 20.2181 9.98884 20.199 9.8897C20.1802 9.79115 20.1746 9.69505 20.1833 9.60224C20.1913 9.50954 20.2176 9.41275 20.2611 9.31232C20.3195 9.17826 20.4004 9.06083 20.5045 8.9597C20.6082 8.8588 20.7428 8.77595 20.9088 8.71091C21.0745 8.64552 21.229 8.61494 21.3725 8.6188C21.5156 8.62244 21.6547 8.65337 21.7887 8.7115C21.8892 8.75521 21.974 8.80865 22.0433 8.87076C22.1125 8.9331 22.1743 9.00681 22.2296 9.09154C22.2845 9.17638 22.3356 9.27294 22.3827 9.38052C22.4296 9.48857 22.4804 9.61091 22.5334 9.74697ZM21.9765 9.96599C21.9228 9.82982 21.8757 9.71802 21.8354 9.63072C21.7947 9.54341 21.7574 9.47251 21.7236 9.41779C21.6897 9.36306 21.6572 9.32111 21.6256 9.2924C21.594 9.26275 21.5592 9.23861 21.5209 9.21986C21.4629 9.18997 21.3983 9.17345 21.3272 9.16865C21.256 9.16408 21.1818 9.17732 21.1043 9.20802C21.027 9.23814 20.9631 9.27962 20.9143 9.33107C20.8652 9.3831 20.828 9.43958 20.8033 9.50181C20.7883 9.54201 20.7789 9.58349 20.776 9.62626C20.7727 9.66904 20.7773 9.72201 20.7897 9.78517C20.8024 9.84822 20.8242 9.92521 20.8552 10.0164C20.8866 10.1076 20.9289 10.2213 20.9827 10.3576C21.0361 10.4938 21.0824 10.606 21.1218 10.6936C21.1609 10.7818 21.1974 10.8523 21.2307 10.9057C21.264 10.9592 21.2962 11.0003 21.3275 11.0293C21.3593 11.0589 21.3942 11.0826 21.4327 11.1018C21.4929 11.13 21.5593 11.1475 21.6312 11.1531C21.7028 11.159 21.7772 11.1465 21.855 11.1158C21.9323 11.0854 21.9954 11.044 22.044 10.9907C22.0922 10.9376 22.1277 10.8804 22.1499 10.8195C22.1651 10.7795 22.1743 10.738 22.1775 10.6952C22.1806 10.6522 22.1765 10.6 22.1644 10.5382C22.1526 10.4767 22.1317 10.4003 22.1018 10.3084C22.0716 10.2167 22.03 10.1023 21.9765 9.96599Z" fill="#EFB832"/>
<path d="M25.3547 10.5363L23.6821 9.0463L24.1841 10.8605L23.6073 11.0202L22.7889 8.06427L23.3039 7.92189L24.9754 9.40806L24.4743 7.59798L25.0517 7.43849L25.8698 10.394L25.3547 10.5363Z" fill="#EFB832"/>
<path d="M26.4854 10.2968L26.0444 7.26165L28.0435 6.97126L28.1202 7.4999L26.7138 7.70427L26.8169 8.41583L28.015 8.24216L28.0914 8.77021L26.8939 8.94435L27.0011 9.68205L28.4078 9.47767L28.4848 10.006L26.4854 10.2968Z" fill="#EFB832"/>
<path d="M32.1593 7.80623C32.1588 7.93572 32.1353 8.05818 32.0888 8.17431C32.0424 8.29068 31.9761 8.39216 31.8896 8.47947C31.8031 8.56665 31.6963 8.63533 31.5699 8.6849C31.4432 8.73505 31.3012 8.75955 31.1436 8.75896L30.5531 8.75638L30.5486 9.91091L29.95 9.9088L29.9618 6.84154L31.1506 6.84623C31.3086 6.84681 31.4508 6.87247 31.5772 6.92322C31.7033 6.97372 31.8091 7.04345 31.895 7.13111C31.9806 7.21923 32.0465 7.32142 32.0918 7.43779C32.1374 7.55462 32.1597 7.67673 32.1593 7.80623ZM31.5605 7.80412C31.5612 7.67779 31.522 7.5756 31.4433 7.4979C31.3647 7.41998 31.2563 7.38048 31.1186 7.38037L30.5584 7.37802L30.5554 8.21767L31.1156 8.22001C31.253 8.22048 31.3618 8.18298 31.4409 8.10728C31.52 8.03158 31.5601 7.93044 31.5605 7.80412Z" fill="#EFB832"/>
<path d="M32.5744 9.95568L32.9183 6.90822L34.9256 7.13439L34.8658 7.66513L33.4532 7.50611L33.3728 8.22095L34.5755 8.3563L34.5155 8.88728L33.3127 8.75158L33.2293 9.49208L34.6419 9.65111L34.5821 10.1821L32.5744 9.95568Z" fill="#EFB832"/>
<path d="M36.8443 10.6708L36.0858 8.56267L35.6611 10.3969L35.0777 10.2617L35.7698 7.27361L36.29 7.39419L37.0498 9.49806L37.4734 7.66841L38.0569 7.80365L37.365 10.7915L36.8443 10.6708Z" fill="#EFB832"/>
<path d="M39.6675 11.5943L39.1752 9.40912L38.5271 11.1763L37.9648 10.9698L39.0213 8.09087L39.5225 8.27498L40.0161 10.4564L40.6631 8.69298L41.2251 8.89947L40.1686 11.779L39.6675 11.5943Z" fill="#EFB832"/>
<path d="M42.3537 11.4435L41.7918 12.5685L41.2599 12.3032L41.8218 11.1777L41.8053 9.14767L42.387 9.43806L42.3475 10.8L43.4048 9.94595L43.9865 10.2363L42.3537 11.4435Z" fill="#EFB832"/>
<path d="M39.7836 50.8075C39.7299 50.671 39.6833 50.5471 39.6445 50.436C39.6053 50.3251 39.577 50.2197 39.5595 50.1199C39.542 50.0208 39.5372 49.9244 39.5458 49.8317C39.5539 49.7392 39.5799 49.6422 39.6236 49.5416C39.6818 49.4076 39.7622 49.2904 39.8647 49.1898C39.9671 49.0897 40.1014 49.0067 40.2671 48.9416C40.4325 48.8766 40.5877 48.8456 40.7325 48.8489C40.8775 48.8522 41.0167 48.8826 41.1511 48.941C41.2513 48.9851 41.3362 49.0379 41.4054 49.1003C41.4749 49.1623 41.5365 49.2363 41.5897 49.3218C41.6437 49.4072 41.6937 49.5038 41.7408 49.6116C41.7883 49.7199 41.8383 49.8418 41.8921 49.9783C41.9456 50.1144 41.9918 50.2381 42.0308 50.3492C42.0701 50.4605 42.099 50.5655 42.1181 50.6646C42.1368 50.7632 42.1424 50.8593 42.1338 50.9521C42.1257 51.0449 42.0994 51.1416 42.0559 51.242C41.9975 51.3761 41.9166 51.4935 41.8125 51.5947C41.7088 51.6956 41.5742 51.7785 41.4082 51.8435C41.2425 51.9089 41.088 51.9395 40.9445 51.9356C40.8015 51.932 40.6624 51.9012 40.5283 51.8428C40.4279 51.7991 40.3429 51.7457 40.2738 51.6836C40.2045 51.6212 40.1426 51.5475 40.0874 51.4628C40.0325 51.3779 39.9814 51.2814 39.9343 51.1738C39.8874 51.0658 39.8368 50.9434 39.7836 50.8075ZM40.3406 50.5883C40.3942 50.7245 40.4413 50.8363 40.4816 50.9236C40.5223 51.0109 40.5596 51.0818 40.5934 51.1365C40.6273 51.1913 40.6598 51.2332 40.6914 51.262C40.7231 51.2917 40.7579 51.3158 40.7961 51.3346C40.8541 51.3646 40.9188 51.381 40.9898 51.3858C41.061 51.3904 41.1352 51.3772 41.2127 51.3464C41.2899 51.3163 41.3538 51.2748 41.4027 51.2234C41.452 51.1713 41.489 51.1149 41.5137 51.0526C41.5287 51.0124 41.5381 50.971 41.5411 50.9282C41.5444 50.8854 41.5399 50.8324 41.5274 50.7694C41.5148 50.7062 41.493 50.6293 41.4619 50.5382C41.4306 50.447 41.3882 50.3332 41.3344 50.1969C41.281 50.0608 41.2347 49.9486 41.1953 49.861C41.1562 49.7727 41.1197 49.7024 41.0865 49.6488C41.0532 49.5954 41.0209 49.5543 40.9897 49.5252C40.9578 49.4957 40.923 49.472 40.8844 49.4528C40.8242 49.4245 40.7579 49.4071 40.6859 49.4015C40.6143 49.3956 40.5399 49.408 40.4621 49.4387C40.3849 49.4692 40.3217 49.5106 40.2732 49.5639C40.2249 49.617 40.1894 49.6742 40.1671 49.7351C40.1519 49.7751 40.1427 49.8165 40.1395 49.8593C40.1364 49.9023 40.1405 49.9546 40.1526 50.0163C40.1644 50.0779 40.1853 50.1543 40.2152 50.2461C40.2455 50.3377 40.2871 50.4522 40.3406 50.5883Z" fill="#EFB832"/>
<path d="M36.9623 50.0181L38.6349 51.5081L38.1329 49.694L38.7097 49.5342L39.5281 52.4902L39.0131 52.6325L37.3416 51.1464L37.8427 52.9565L37.2653 53.1159L36.4472 50.1605L36.9623 50.0181Z" fill="#EFB832"/>
<path d="M35.8318 50.2575L36.2728 53.2927L34.2737 53.5831L34.1969 53.0544L35.6034 52.8501L35.5003 52.1385L34.3021 52.3122L34.2257 51.7841L35.4233 51.61L35.316 50.8723L33.9093 51.0767L33.8323 50.5484L35.8318 50.2575Z" fill="#EFB832"/>
<path d="M30.1577 52.7481C30.1583 52.6186 30.1817 52.4961 30.2282 52.38C30.2746 52.2636 30.341 52.1622 30.4274 52.075C30.5139 51.9878 30.6207 51.9191 30.7471 51.8695C30.8738 51.8194 31.0158 51.7949 31.1735 51.7955L31.7638 51.7981L31.7683 50.6435L32.3669 50.6456L32.3551 53.7129L31.1663 53.7082C31.0083 53.7076 30.8661 53.682 30.7397 53.6312C30.6136 53.5807 30.5078 53.511 30.4219 53.4233C30.3363 53.3352 30.2704 53.233 30.2251 53.1167C30.1797 52.9997 30.1574 52.8776 30.1577 52.7481ZM30.7566 52.7502C30.7559 52.8765 30.7952 52.9787 30.8738 53.0564C30.9524 53.1343 31.0608 53.1737 31.1985 53.174L31.7587 53.1763L31.7617 52.3367L31.2016 52.3343C31.0642 52.3338 30.9554 52.3713 30.8763 52.447C30.797 52.5227 30.757 52.6239 30.7566 52.7502Z" fill="#EFB832"/>
<path d="M29.7427 50.5986L29.3989 53.6461L27.3916 53.4199L27.4513 52.8892L28.8639 53.0482L28.9443 52.3334L27.7415 52.198L27.8015 51.667L29.0043 51.8027L29.0877 51.0622L27.6752 50.9032L27.7349 50.3722L29.7427 50.5986Z" fill="#EFB832"/>
<path d="M25.4729 49.8836L26.2313 51.9917L26.656 50.1574L27.2395 50.2927L26.5474 53.2807L26.0272 53.1601L25.2673 51.0563L24.8437 52.8859L24.2602 52.7507L24.9521 49.7629L25.4729 49.8836Z" fill="#EFB832"/>
<path d="M22.6496 48.96L23.1418 51.1452L23.7899 49.378L24.3522 49.5845L23.2958 52.4634L22.7945 52.2793L22.3008 50.0978L21.6538 51.8612L21.0918 51.6547L22.1483 48.7752L22.6496 48.96Z" fill="#EFB832"/>
<path d="M19.9633 49.1108L20.5252 47.9858L21.0571 48.2511L20.4952 49.3766L20.5117 51.4067L19.93 51.1163L19.9695 49.7543L18.9122 50.6084L18.3305 50.318L19.9633 49.1108Z" fill="#EFB832"/>
<path d="M39.8606 32.2476C39.5513 31.3437 39.0511 30.5826 38.3622 29.9639C37.8139 29.4156 37.1591 28.9879 36.3979 28.6785C35.6366 28.3692 34.6725 28.1302 33.5057 27.9634L33.2807 27.9292L30.4708 27.4993C29.9245 27.429 29.4665 27.3086 29.097 27.1418C28.9423 27.0735 28.7977 26.9972 28.6612 26.9149C28.4724 26.8004 28.3036 26.6739 28.1511 26.5352C27.888 26.2742 27.7052 25.9889 27.5968 25.6797C27.4904 25.3704 27.4361 25.049 27.4361 24.7156C27.4361 23.8338 27.7514 23.0787 28.3822 22.448C28.4685 22.3616 28.5609 22.2812 28.6613 22.2089C29.288 21.7369 30.1777 21.5019 31.3286 21.5019C31.9532 21.5019 32.6039 21.5582 33.2808 21.6727C33.5077 21.7109 33.7368 21.7551 33.9698 21.8052C34.8977 22.0081 35.7554 22.4901 36.5406 23.2513L39.682 20.1442C38.5873 19.0737 37.3863 18.3124 36.0767 17.8606C35.2372 17.5713 34.3033 17.3725 33.2788 17.2701C32.7065 17.2098 32.1039 17.1817 31.4712 17.1817C30.459 17.1817 29.521 17.2841 28.6613 17.4911C28.3499 17.5654 28.0488 17.6517 27.7574 17.7542C26.6628 18.1337 25.7349 18.664 24.9736 19.3409C24.2124 20.0197 23.6279 20.8292 23.2243 21.7691C22.8186 22.7091 22.6177 23.7516 22.6177 24.8944C22.6177 27.0595 23.2243 28.7265 24.4374 29.8915C25.0098 30.4398 25.6866 30.8857 26.472 31.2312C27.0926 31.5024 27.8197 31.7193 28.6612 31.8779C28.8882 31.9221 29.1211 31.9623 29.3642 31.9984L32.399 32.4624C32.7404 32.5125 33.0337 32.5668 33.2807 32.623C33.4996 32.6753 33.6824 32.7274 33.827 32.7837C34.1363 32.9022 34.4215 33.081 34.6846 33.3179C35.2068 33.8422 35.4699 34.5451 35.4699 35.4249C35.4699 36.4492 35.0883 37.2345 34.3271 37.7808C34.0339 37.9937 33.6844 38.1645 33.2807 38.2929C32.638 38.4997 31.8568 38.6022 30.9348 38.6022C30.1516 38.6022 29.3923 38.5319 28.6612 38.3912C28.3056 38.3229 27.9582 38.2385 27.6148 38.1381C26.5684 37.8288 25.6404 37.2704 24.831 36.461L21.6174 39.6726C22.8547 40.9358 24.2284 41.8096 25.7409 42.2977C26.6406 42.5889 27.6148 42.7917 28.6633 42.9082C29.3743 42.9886 30.1214 43.0288 30.9007 43.0288C31.7282 43.0288 32.5216 42.9625 33.2808 42.8279C33.7428 42.7476 34.1927 42.6411 34.6305 42.5106C35.7854 42.1671 36.7836 41.6671 37.6292 41.0122C38.4748 40.3575 39.1355 39.5541 39.6116 38.602C40.0877 37.65 40.3247 36.5554 40.3247 35.3182C40.3245 34.1758 40.1698 33.1534 39.8606 32.2476Z" fill="#CC9322"/>
<path d="M33.2807 17.3527V21.6729C32.6038 21.5584 31.9531 21.5022 31.3285 21.5022C30.1776 21.5022 29.2879 21.7371 28.6612 22.2092V17.3527C28.6612 16.0813 29.7016 15.0429 30.9709 15.0429C31.6056 15.0429 32.1841 15.302 32.6018 15.7218C33.0036 16.1215 33.2587 16.6677 33.2787 17.2703C33.2807 17.2984 33.2807 17.3245 33.2807 17.3527Z" fill="#CC9322"/>
<path d="M33.2807 27.9293V32.6231C33.0337 32.5669 32.7405 32.5126 32.399 32.4625L29.3642 31.9985C29.1211 31.9623 28.8882 31.9222 28.6612 31.8781V26.9151C28.7977 26.9974 28.9423 27.0737 29.097 27.1419C29.4666 27.3087 29.9245 27.4292 30.4708 27.4995L33.2807 27.9293Z" fill="#CC9322"/>
<path d="M30.9349 38.6024C31.8568 38.6024 32.6381 38.5 33.2807 38.2931V42.8604C33.2807 44.1298 32.2423 45.1702 30.9709 45.1702C29.7176 45.1702 28.6873 44.1559 28.6632 42.9086C28.6612 42.8925 28.6612 42.8765 28.6612 42.8604V38.3916C29.3923 38.5321 30.1515 38.6024 30.9349 38.6024Z" fill="#CC9322"/>
<path d="M8.70099 31.2268C9.31972 31.2268 9.8213 30.7253 9.8213 30.1065C9.8213 29.4878 9.31972 28.9862 8.70099 28.9862C8.08225 28.9862 7.58067 29.4878 7.58067 30.1065C7.58067 30.7253 8.08225 31.2268 8.70099 31.2268Z" fill="#EFB832"/>
<path d="M53.0164 31.2268C53.6351 31.2268 54.1367 30.7253 54.1367 30.1065C54.1367 29.4878 53.6351 28.9862 53.0164 28.9862C52.3976 28.9862 51.8961 29.4878 51.8961 30.1065C51.8961 30.7253 52.3976 31.2268 53.0164 31.2268Z" fill="#EFB832"/>
<path opacity="0.06" d="M30.985 60.0783C38.6674 60.0783 46.3498 57.1542 52.1983 51.3058C63.8953 39.6088 63.8953 20.5763 52.1983 8.87943C46.3497 3.03072 38.6674 0.106537 30.985 0.106537V60.0783Z" fill="#040000"/>
</g>
<defs>
<clipPath id="clip0_13_2">
<rect width="60" height="60" fill="white" transform="translate(0.970947 0.106537)"/>
</clipPath>
</defs>
</svg>
