<svg width="60" height="60" viewBox="0 0 60 60" fill="none" xmlns="http://www.w3.org/2000/svg">
<g clip-path="url(#clip0_23_60)">
<path d="M30 60C46.5685 60 60 46.5685 60 30C60 13.4315 46.5685 0 30 0C13.4315 0 0 13.4315 0 30C0 46.5685 13.4315 60 30 60Z" fill="#5865F2"/>
<path d="M40.3963 20.4492C38.4512 19.5565 36.3985 18.9199 34.2896 18.5555C34.2705 18.5518 34.2506 18.5543 34.2329 18.5626C34.2152 18.5709 34.2006 18.5846 34.1912 18.6018C33.9112 19.1093 33.657 19.6307 33.4295 20.1639C31.1564 19.8187 28.8442 19.8187 26.5711 20.1639C26.3426 19.6294 26.0848 19.1079 25.7988 18.6018C25.789 18.585 25.7744 18.5716 25.7568 18.5633C25.7392 18.5551 25.7196 18.5523 25.7004 18.5555C23.5921 18.9193 21.5401 19.5559 19.5961 20.4492C19.5793 20.4563 19.5652 20.4683 19.5557 20.4838C15.6668 26.2945 14.6016 31.9623 15.1242 37.5586C15.1257 37.5724 15.13 37.5857 15.1367 37.5977C15.1434 37.6098 15.1525 37.6204 15.1635 37.6289C17.428 39.3064 19.9611 40.5869 22.6547 41.4158C22.6737 41.4215 22.694 41.4212 22.7128 41.4151C22.7317 41.4089 22.7482 41.3971 22.7602 41.3813C23.3385 40.5939 23.851 39.7602 24.2924 38.8887C24.2984 38.8767 24.3018 38.8636 24.3024 38.8502C24.303 38.8369 24.3008 38.8235 24.2959 38.8111C24.2909 38.7986 24.2834 38.7873 24.2739 38.778C24.2643 38.7687 24.2528 38.7614 24.2402 38.7568C23.432 38.4481 22.6495 38.0759 21.9 37.6436C21.8864 37.6356 21.875 37.6243 21.8667 37.6109C21.8585 37.5974 21.8537 37.5821 21.8528 37.5664C21.8519 37.5506 21.8548 37.5349 21.8614 37.5205C21.868 37.5062 21.8781 37.4937 21.8906 37.4842C22.0477 37.367 22.2053 37.2439 22.3553 37.1197C22.3686 37.1088 22.3847 37.1018 22.4018 37.0995C22.4189 37.0972 22.4362 37.0998 22.4519 37.1068C27.3615 39.3486 32.6771 39.3486 37.5287 37.1068C37.5445 37.0993 37.5622 37.0963 37.5796 37.0984C37.5971 37.1005 37.6135 37.1075 37.6271 37.1186C37.7771 37.2422 37.9348 37.3664 38.0959 37.4842C38.1085 37.4936 38.1186 37.506 38.1253 37.5203C38.132 37.5346 38.1351 37.5503 38.1343 37.5661C38.1335 37.5818 38.1288 37.5971 38.1207 37.6106C38.1125 37.6241 38.1012 37.6355 38.0877 37.6436C37.3392 38.08 36.5552 38.4525 35.7439 38.7568C35.7313 38.7616 35.7198 38.769 35.7102 38.7785C35.7006 38.7881 35.6932 38.7995 35.6884 38.8122C35.6836 38.8248 35.6815 38.8383 35.6823 38.8518C35.6831 38.8653 35.6867 38.8785 35.693 38.8904C36.1417 39.7572 36.6534 40.5899 37.224 41.3818C37.2356 41.3981 37.252 41.4104 37.271 41.4168C37.2899 41.4232 37.3104 41.4235 37.3295 41.4176C40.0267 40.5911 42.5631 39.3104 44.8295 37.6307C44.8406 37.6226 44.8498 37.6123 44.8566 37.6003C44.8634 37.5884 44.8675 37.5752 44.8687 37.5615C45.4945 31.0904 43.8211 25.4689 40.4332 20.4861C40.4256 20.4699 40.4126 20.4568 40.3963 20.4492ZM25.0248 34.1514C23.5465 34.1514 22.3295 32.7943 22.3295 31.1279C22.3295 29.4615 23.5236 28.1045 25.0248 28.1045C26.5383 28.1045 27.7447 29.4732 27.7201 31.1279C27.7213 32.7943 26.5266 34.1514 25.0248 34.1514ZM34.9934 34.1514C33.515 34.1514 32.298 32.7943 32.298 31.1279C32.298 29.4615 33.4922 28.1045 34.9934 28.1045C36.5068 28.1045 37.7133 29.4732 37.6887 31.1279C37.6893 32.7943 36.5068 34.1514 34.9934 34.1514Z" fill="white"/>
</g>
<defs>
<clipPath id="clip0_23_60">
<rect width="60" height="60" fill="white"/>
</clipPath>
</defs>
</svg>
