<svg width="60" height="60" viewBox="0 0 60 60" fill="none" xmlns="http://www.w3.org/2000/svg">
<path fill-rule="evenodd" clip-rule="evenodd" d="M13.125 25.1365V20C13.125 10.6802 20.6802 3.125 30 3.125C39.3197 3.125 46.875 10.6802 46.875 20V25.1365C49.662 25.3447 51.4767 25.87 52.8032 27.1968C55 29.3935 55 32.929 55 40C55 47.071 55 50.6065 52.8032 52.8032C50.6065 55 47.071 55 40 55H20C12.9289 55 9.3934 55 7.1967 52.8032C5 50.6065 5 47.071 5 40C5 32.929 5 29.3935 7.1967 27.1968C8.52328 25.87 10.3381 25.3447 13.125 25.1365ZM16.875 20C16.875 12.7513 22.7513 6.875 30 6.875C37.2487 6.875 43.125 12.7513 43.125 20V25.009C42.1675 25 41.1287 25 40 25H20C18.8712 25 17.8325 25 16.875 25.009V20ZM30 33.125C31.0355 33.125 31.875 33.9645 31.875 35V45C31.875 46.0355 31.0355 46.875 30 46.875C28.9645 46.875 28.125 46.0355 28.125 45V35C28.125 33.9645 28.9645 33.125 30 33.125Z" fill="white"/>
</svg>
