<svg width="61" height="61" viewBox="0 0 61 61" fill="none" xmlns="http://www.w3.org/2000/svg">
<path d="M55.7733 40.3722C55.7733 47.4432 55.7733 50.9787 53.5765 53.1754C51.3798 55.3722 47.8443 55.3722 40.7733 55.3722H20.7733C13.7022 55.3722 10.1667 55.3722 7.97 53.1754C5.7733 50.9787 5.7733 47.4432 5.7733 40.3722V30.3722C5.7733 23.3011 5.7733 19.7656 7.97 17.5689C10.1667 15.3722 13.7022 15.3722 20.7733 15.3722H40.7733C47.8443 15.3722 51.3798 15.3722 53.5765 17.5689C55.7733 19.7656 55.7733 23.3011 55.7733 30.3722V40.3722Z" stroke="#A95D1D" stroke-width="3"/>
<path d="M23.2733 5.37216L30.7733 14.1222L38.2733 5.37216" stroke="#A95D1D" stroke-width="3" stroke-linecap="round"/>
<path d="M40.7733 15.3722V55.3722" stroke="#A95D1D" stroke-width="3" stroke-linecap="round"/>
<path d="M48.2733 39.3722C48.8256 39.3722 49.2733 39.8198 49.2733 40.3722C49.2733 40.9245 48.8256 41.3722 48.2733 41.3722C47.721 41.3722 47.2733 40.9245 47.2733 40.3722C47.2733 39.8198 47.721 39.3722 48.2733 39.3722Z" fill="#A95D1D" stroke="#A95D1D" stroke-width="3"/>
<path d="M48.2733 29.3722C48.8256 29.3722 49.2733 29.8198 49.2733 30.3722C49.2733 30.9245 48.8256 31.3722 48.2733 31.3722C47.721 31.3722 47.2733 30.9245 47.2733 30.3722C47.2733 29.8198 47.721 29.3722 48.2733 29.3722Z" fill="#A95D1D" stroke="#A95D1D" stroke-width="3"/>
</svg>
