<svg width="60" height="60" viewBox="0 0 60 60" fill="none" xmlns="http://www.w3.org/2000/svg">
<path fill-rule="evenodd" clip-rule="evenodd" d="M29.8565 3.125H30.1435C35.9145 3.12498 40.437 3.12495 43.9657 3.59938C47.5775 4.08498 50.4278 5.09833 52.6648 7.33535C54.9018 9.57238 55.915 12.4224 56.4008 16.0343C56.875 19.563 56.875 24.0856 56.875 29.8565V30.1435C56.875 35.9145 56.875 40.437 56.4008 43.9657C55.915 47.5775 54.9018 50.4278 52.6648 52.6648C50.4278 54.9018 47.5775 55.915 43.9657 56.4008C40.437 56.875 35.9145 56.875 30.1435 56.875H29.8565C24.0856 56.875 19.563 56.875 16.0343 56.4008C12.4224 55.915 9.57238 54.9018 7.33535 52.6648C5.09833 50.4278 4.08498 47.5775 3.59938 43.9657C3.12495 40.437 3.12498 35.9145 3.125 30.1435V29.8565C3.12498 24.0856 3.12495 19.563 3.59938 16.0343C4.08498 12.4224 5.09833 9.57238 7.33535 7.33535C9.57238 5.09833 12.4224 4.08498 16.0343 3.59938C19.563 3.12495 24.0856 3.12498 29.8565 3.125ZM15.625 7.45453C12.9629 7.91265 11.2708 8.70325 9.987 9.987C8.70325 11.2707 7.91265 12.9629 7.45453 15.625H15.625V7.45453ZM19.375 7.04993V15.625H28.125V6.8757C24.6367 6.87938 21.7731 6.9027 19.375 7.04993ZM31.875 6.8757V15.625H40.625V7.04993C38.227 6.9027 35.3633 6.87938 31.875 6.8757ZM44.375 7.45453V15.625H52.5455C52.0872 12.9629 51.2967 11.2708 50.013 9.987C48.7292 8.70325 47.037 7.91265 44.375 7.45453ZM52.95 19.375H42.5015C42.502 19.375 42.501 19.375 42.5015 19.375C42.501 19.375 42.499 19.375 42.4985 19.375H30.0023C30.0028 19.375 30.0015 19.375 30.0023 19.375C30.0015 19.375 29.9985 19.375 29.9977 19.375H17.5027C17.5018 19.375 17.5009 19.375 17.5 19.375C17.4991 19.375 17.4982 19.375 17.4973 19.375H7.04993C6.87713 22.1896 6.875 25.6455 6.875 30C6.875 34.3545 6.87713 37.8105 7.04993 40.625H52.95C53.1228 37.8105 53.125 34.3545 53.125 30C53.125 25.6455 53.1228 22.1896 52.95 19.375ZM52.5455 44.375H44.375V52.5455C47.037 52.0872 48.7292 51.2967 50.013 50.013C51.2967 48.7292 52.0872 47.037 52.5455 44.375ZM40.625 52.95V44.375H31.875V53.1243C35.3633 53.1208 38.227 53.0973 40.625 52.95ZM28.125 53.1243V44.375H19.375V52.95C21.7731 53.0973 24.6367 53.1208 28.125 53.1243ZM15.625 52.5455V44.375H7.45453C7.91265 47.037 8.70325 48.7292 9.987 50.013C11.2707 51.2967 12.9629 52.0872 15.625 52.5455ZM31.9482 24.3703C31.99 24.3983 32.0318 24.4265 32.0738 24.4547C32.1125 24.4807 32.1513 24.5067 32.1898 24.5325C33.414 25.3553 34.5085 26.0905 35.2775 26.799C36.1125 27.5682 36.875 28.5843 36.875 30C36.875 31.4157 36.1125 32.4318 35.2775 33.201C34.5085 33.9095 33.414 34.6448 32.1898 35.4675L32.0738 35.5452C32.032 35.5735 31.99 35.6017 31.9485 35.6297C30.7145 36.459 29.6037 37.206 28.6702 37.6378C27.6895 38.0913 26.2985 38.4785 24.966 37.5965C23.7418 36.7865 23.4039 35.4328 23.2652 34.3488C23.1248 33.251 23.1249 31.8088 23.125 30.1285V29.8715C23.1249 28.1912 23.1248 26.749 23.2652 25.6512C23.4039 24.5671 23.7418 23.2136 24.966 22.4035C26.2985 21.5216 27.6895 21.9087 28.6702 22.3623C29.6035 22.794 30.7145 23.5409 31.9482 24.3703ZM27.0482 25.7442C27.0637 25.751 27.0795 25.7583 27.096 25.7658C27.7232 26.056 28.5817 26.626 29.982 27.567C31.359 28.4925 32.2057 29.068 32.7365 29.557C32.9842 29.7852 33.08 29.922 33.1142 29.9835C33.118 29.9902 33.1207 29.9957 33.1227 30C33.1207 30.0043 33.118 30.0098 33.1142 30.0165C33.08 30.078 32.9842 30.2148 32.7365 30.443C32.2057 30.932 31.359 31.5075 29.982 32.433C28.5817 33.374 27.7232 33.944 27.096 34.2342C27.0795 34.2417 27.0637 34.249 27.0482 34.2558C27.0272 34.1575 27.0052 34.0317 26.985 33.8727C26.8787 33.0427 26.875 31.845 26.875 30C26.875 28.155 26.8787 26.9573 26.985 26.1273C27.0052 25.9683 27.0272 25.8425 27.0482 25.7442Z" fill="#9CACB9"/>
</svg>
